<svg xmlns="http://www.w3.org/2000/svg" width="100" height="40" fill="none"><path fill="currentColor" d="M79.382 29.173V15.798h2.68v1.887c.793-1.392 2.333-2.234 4.244-2.234a5.187 5.187 0 0 1 3.722 1.438c1.017.968 1.54 2.333 1.54 4.146v8.128H88.81v-7.36c0-2.463-1.29-3.82-3.202-3.82-2.062 0-3.5 1.586-3.5 3.87v7.32h-2.727ZM77.197 23.54h-10.45c.397 2.086 1.863 3.5 4.435 3.5a8.353 8.353 0 0 0 4.54-1.439l1.142 2.01a10.1 10.1 0 0 1-5.773 1.86c-5.013 0-7.171-3.498-7.171-7.023 0-2.01.618-3.673 1.884-4.988 1.266-1.315 2.93-1.985 4.927-1.985 1.911 0 3.5.596 4.715 1.81 1.214 1.215 1.837 2.855 1.837 4.927.004.444-.024.888-.086 1.327Zm-10.45-2.232h7.792c-.222-2.111-1.786-3.481-3.796-3.481-2.06 0-3.594 1.394-3.995 3.48ZM59.003 10.361h2.754v18.812h-2.71v-1.86a5.499 5.499 0 0 1-4.49 2.183 6.334 6.334 0 0 1-4.791-2.01 7.094 7.094 0 0 1-1.911-5.013 6.976 6.976 0 0 1 1.911-4.963 6.216 6.216 0 0 1 4.766-2.035c1.762 0 3.25.72 4.466 2.185l.005-7.299Zm-.992 8.944a4.316 4.316 0 0 0-6.205 0 4.506 4.506 0 0 0-1.19 3.176 4.636 4.636 0 0 0 1.19 3.229 4.375 4.375 0 0 0 6.205 0 4.629 4.629 0 0 0 1.192-3.227 4.496 4.496 0 0 0-1.192-3.178ZM33.713 29.173V15.798h2.68v1.886c.796-1.391 2.333-2.234 4.244-2.234a5.173 5.173 0 0 1 3.722 1.439c1.02.968 1.54 2.332 1.54 4.145v8.13h-2.754v-7.361c0-2.463-1.291-3.82-3.203-3.82-2.059 0-3.5 1.586-3.5 3.87v7.32h-2.73ZM27.581 12.174a1.825 1.825 0 0 1 1.88-1.813 1.791 1.791 0 0 1 1.813 1.813 1.805 1.805 0 0 1-1.813 1.862 1.836 1.836 0 0 1-1.88-1.862Zm3.203 16.997h-2.73V15.798h2.73V29.17ZM7.479 29.173l-6.23-18.339h3.087l4.187 13.078 4.64-13.078h1.518l4.735 13.078 4.133-13.078h3.077l-6.218 18.34h-1.911l-4.54-13.152L9.44 29.173H7.48Z"/></svg>