<svg xmlns="http://www.w3.org/2000/svg" width="40" height="40" fill="none"><path fill="#6936f5" d="m32.657 16.541-9.905 2.83a1.478 1.478 0 0 0-1.027 1.062l-.764 3.06a1.48 1.48 0 0 1-1.027 1.061l-9.493 2.705a1.478 1.478 0 0 0-1.027 1.064l-1.289 5.121a.246.246 0 0 0 .308.296l9.903-2.83a1.478 1.478 0 0 0 1.027-1.062l.763-3.052a1.479 1.479 0 0 1 1.028-1.062l9.493-2.71a1.477 1.477 0 0 0 1.027-1.064l1.288-5.118a.245.245 0 0 0-.177-.303.245.245 0 0 0-.128.002ZM32.657 6.25l-9.905 2.84a1.478 1.478 0 0 0-1.027 1.062l-.764 3.052a1.478 1.478 0 0 1-1.027 1.061l-9.493 2.712a1.478 1.478 0 0 0-1.027 1.065l-1.289 5.12a.246.246 0 0 0 .308.296l9.903-2.83a1.479 1.479 0 0 0 1.027-1.062l.763-3.052a1.48 1.48 0 0 1 1.028-1.061l9.493-2.71a1.478 1.478 0 0 0 1.035-1.074l1.28-5.121a.245.245 0 0 0-.177-.3.246.246 0 0 0-.128.002Z"/></svg>